<svg width="33" height="33" viewBox="0 0 33 33" fill="none" xmlns="http://www.w3.org/2000/svg">
<path fill-rule="evenodd" clip-rule="evenodd" d="M16.5 1.71875C16.6489 1.71866 16.7961 1.75081 16.9314 1.81299C17.0666 1.87518 17.1869 1.96593 17.2837 2.079L21.4087 6.8915C21.5867 7.09936 21.6748 7.36941 21.6537 7.64223C21.6325 7.91505 21.5039 8.16829 21.296 8.34625C21.0881 8.52421 20.8181 8.61231 20.5453 8.59116C20.2725 8.57002 20.0192 8.44136 19.8413 8.2335L17.5312 5.5385V20.625C17.5312 20.8985 17.4226 21.1608 17.2292 21.3542C17.0358 21.5476 16.7735 21.6562 16.5 21.6562C16.2265 21.6562 15.9642 21.5476 15.7708 21.3542C15.5774 21.1608 15.4688 20.8985 15.4688 20.625V5.53713L13.1587 8.2335C13.0706 8.33642 12.9631 8.42098 12.8423 8.48235C12.7215 8.54372 12.5898 8.58069 12.4547 8.59116C12.3196 8.60163 12.1838 8.58539 12.055 8.54337C11.9262 8.50135 11.8069 8.43437 11.704 8.34625C11.6011 8.25813 11.5165 8.15061 11.4551 8.02981C11.3938 7.90901 11.3568 7.77731 11.3463 7.64223C11.3359 7.50714 11.3521 7.37131 11.3941 7.2425C11.4362 7.1137 11.5031 6.99442 11.5913 6.8915L15.7163 2.079C15.8131 1.96593 15.9334 1.87518 16.0686 1.81299C16.2039 1.75081 16.3511 1.71866 16.5 1.71875ZM9.6195 11.3465C9.893 11.345 10.1559 11.4523 10.3503 11.6447C10.5447 11.837 10.6548 12.0987 10.6562 12.3723C10.6577 12.6458 10.5505 12.9086 10.3581 13.1031C10.1657 13.2975 9.904 13.4075 9.6305 13.409C8.12763 13.4172 7.062 13.4558 6.25212 13.6043C5.47387 13.7486 5.0215 13.9783 4.68737 14.3124C4.3065 14.6933 4.059 15.2281 3.92287 16.2374C3.784 17.2755 3.78125 18.6519 3.78125 20.625V22C3.78125 23.9745 3.784 25.3509 3.92287 26.389C4.059 27.3982 4.30787 27.9317 4.68737 28.314C5.06825 28.6935 5.60175 28.941 6.61238 29.0771C7.64913 29.2174 9.02688 29.2188 11 29.2188H22C23.9731 29.2188 25.3495 29.2174 26.389 29.0771C27.3982 28.941 27.9317 28.6935 28.3126 28.3126C28.6935 27.9317 28.941 27.3982 29.0771 26.389C29.216 25.3509 29.2188 23.9745 29.2188 22V20.625C29.2188 18.6519 29.216 17.2755 29.0771 16.236C28.941 15.2281 28.6921 14.6933 28.3126 14.3124C27.9771 13.9783 27.5261 13.7486 26.7479 13.6043C25.938 13.4558 24.8724 13.4172 23.3695 13.409C23.2341 13.4083 23.1001 13.3809 22.9753 13.3284C22.8504 13.2759 22.7372 13.1993 22.6419 13.1031C22.5467 13.0068 22.4713 12.8927 22.4201 12.7673C22.369 12.6419 22.343 12.5077 22.3438 12.3723C22.3445 12.2368 22.3719 12.1029 22.4244 11.978C22.4768 11.8532 22.5534 11.7399 22.6497 11.6447C22.746 11.5494 22.86 11.4741 22.9854 11.4229C23.1108 11.3717 23.2451 11.3458 23.3805 11.3465C24.8682 11.3547 26.1071 11.3905 27.1205 11.5761C28.1628 11.7686 29.0496 12.133 29.7715 12.8549C30.5993 13.6812 30.954 14.7249 31.1218 15.9624C31.2813 17.1531 31.2812 18.6697 31.2812 20.5494V22.0756C31.2812 23.9566 31.2813 25.4719 31.1218 26.664C30.954 27.9015 30.5993 28.9438 29.7715 29.7715C28.9438 30.5993 27.9015 30.954 26.664 31.1218C25.4719 31.2813 23.9553 31.2812 22.0756 31.2812H10.9244C9.04475 31.2812 7.52812 31.2813 6.336 31.1218C5.0985 30.9554 4.05625 30.5993 3.2285 29.7715C2.40075 28.9438 2.046 27.9015 1.87962 26.664C1.71875 25.4719 1.71875 23.9553 1.71875 22.0756V20.5494C1.71875 18.6697 1.71875 17.1531 1.87962 15.961C2.04462 14.7235 2.40213 13.6812 3.2285 12.8535C3.95038 12.133 4.83725 11.7672 5.8795 11.5761C6.89288 11.3905 8.13175 11.3547 9.6195 11.3465Z" fill="#FAFAFA"/>
</svg>
