<svg width="39" height="39" viewBox="0 0 39 39" fill="none" xmlns="http://www.w3.org/2000/svg">
<path d="M38.8395 27.5566C38.8395 34.6254 34.6254 38.8395 27.5566 38.8395H25.2457C24.1776 38.8395 23.3037 37.9656 23.3037 36.8975V25.6923C23.3037 25.168 23.7309 24.7213 24.2553 24.7213L27.6731 24.6631C27.945 24.6437 28.1781 24.4495 28.2363 24.1776L28.916 20.4684C28.9743 20.1189 28.7024 19.7887 28.3334 19.7887L24.197 19.847C23.6533 19.847 23.226 19.4198 23.2066 18.8954L23.1289 14.1376C23.1289 13.8269 23.3814 13.555 23.7115 13.555L28.3723 13.4773C28.7024 13.4773 28.9548 13.2249 28.9548 12.8947L28.8772 8.23396C28.8772 7.90382 28.6247 7.65138 28.2946 7.65138L23.0512 7.72908C19.8276 7.78734 17.2642 10.4284 17.3224 13.6521L17.4195 18.9925C17.4389 19.5363 17.0117 19.9635 16.4679 19.9829L14.1376 20.0218C13.8074 20.0218 13.555 20.2742 13.555 20.6044L13.6133 24.2941C13.6133 24.6242 13.8657 24.8767 14.1958 24.8767L16.5262 24.8379C17.07 24.8379 17.4972 25.2651 17.5166 25.7894L17.6914 36.8587C17.7108 37.9462 16.8369 38.8395 15.7494 38.8395H11.2829C4.21409 38.8395 0 34.6254 0 27.5372V11.2829C0 4.21409 4.21409 0 11.2829 0H27.5566C34.6254 0 38.8395 4.21409 38.8395 11.2829V27.5566Z" fill="#095371"/>
</svg>
