<svg width="40" height="39" viewBox="0 0 40 39" fill="none" xmlns="http://www.w3.org/2000/svg">
<path d="M28.2779 0H11.996C4.92371 0 0.70752 4.21409 0.70752 11.2829V27.5372C0.70752 34.6254 4.92371 38.8395 11.996 38.8395H28.2585C35.3308 38.8395 39.547 34.6254 39.547 27.5566V11.2829C39.5664 4.21409 35.3502 0 28.2779 0ZM20.137 26.9546C15.9791 26.9546 12.5983 23.5756 12.5983 19.4198C12.5983 15.2639 15.9791 11.8849 20.137 11.8849C24.2949 11.8849 27.6756 15.2639 27.6756 19.4198C27.6756 23.5756 24.2949 26.9546 20.137 26.9546ZM31.6392 9.47684C31.542 9.70988 31.406 9.92349 31.2312 10.1177C31.0369 10.2925 30.8231 10.4284 30.59 10.5255C30.3568 10.6226 30.1043 10.6809 29.8517 10.6809C29.3271 10.6809 28.8413 10.4867 28.4722 10.1177C28.2973 9.92349 28.1613 9.70988 28.0642 9.47684C27.967 9.2438 27.9087 8.99135 27.9087 8.73889C27.9087 8.48643 27.967 8.23397 28.0642 8.00094C28.1613 7.74848 28.2973 7.55428 28.4722 7.36009C28.9191 6.91343 29.5991 6.69981 30.2208 6.83575C30.3568 6.85517 30.4734 6.89401 30.59 6.95227C30.7066 6.99111 30.8231 7.04937 30.9397 7.12705C31.0369 7.18531 31.134 7.28241 31.2312 7.36009C31.406 7.55428 31.542 7.74848 31.6392 8.00094C31.7363 8.23397 31.7946 8.48643 31.7946 8.73889C31.7946 8.99135 31.7363 9.2438 31.6392 9.47684Z" fill="#095371"/>
</svg>
